# xmcd
#
# Track frame offsets:
#	150
#	11674
#	20873
#	29711
#	40462
#	46811
#	54142
#	67673
#	78336
#	95540
#
# Disc length: 1483 seconds
#
# Revision: 1
# Processed by: cddbd v1.5.2PL0 Copyright (c) Steve Scherf et al.
# Submitted via: audiograbber 1.83.01
#
DISCID=7805c90a
DTITLE=Bitch N' Brown - Whiskey Route
DYEAR=2007
DGENRE=Country
TTITLE0=No More Tries
TTITLE1=Coughin' Up Mud
TTITLE2=I Lied
TTITLE3=City Song
TTITLE4=Whiskey Route
TTITLE5=Money Hungry Bitch
TTITLE6=Whiskey Drink
TTITLE7=That's Alright
TTITLE8=Go On Go
TTITLE9=New Thing
EXTD=Bitch N' Brown (featuring The Bootstraps of Doom)
EXTT0=
EXTT1=
EXTT2=
EXTT3=
EXTT4=
EXTT5=
EXTT6=Special Guest: St. Michael on piano.
EXTT7=Special Guest: Joe Savage on pedal steel guitar.
EXTT8=Special Guest: Joe Savage on pedal steel guitar.
EXTT9=Special Guest: John Moline on fiddle.
PLAYORDER=
